<?xml version="1.0" encoding="UTF-8" standalone="no"?>
<!-- Created with Inkscape (http://www.inkscape.org/) -->

<svg
   width="75mm"
   height="85mm"
   viewBox="0 0 75 85"
   version="1.1"
   id="svg1"
   sodipodi:docname="fairtakepledge-logo.svg"
   inkscape:version="1.4.4 (dcaf3e7, 2026-05-05)"
   xmlns:inkscape="http://www.inkscape.org/namespaces/inkscape"
   xmlns:sodipodi="http://sodipodi.sourceforge.net/DTD/sodipodi-0.dtd"
   xmlns="http://www.w3.org/2000/svg"
   xmlns:svg="http://www.w3.org/2000/svg">
  <sodipodi:namedview
     id="namedview1"
     pagecolor="#ffffff"
     bordercolor="#000000"
     borderopacity="0.25"
     inkscape:showpageshadow="2"
     inkscape:pageopacity="0.0"
     inkscape:pagecheckerboard="0"
     inkscape:deskcolor="#d1d1d1"
     inkscape:document-units="px"
     showguides="true"
     inkscape:zoom="2"
     inkscape:cx="218.25"
     inkscape:cy="205"
     inkscape:window-width="1919"
     inkscape:window-height="1007"
     inkscape:window-x="0"
     inkscape:window-y="25"
     inkscape:window-maximized="0"
     inkscape:current-layer="layer1"
     showgrid="false" />
  <defs
     id="defs1" />
  <g
     inkscape:groupmode="layer"
     id="layer4"
     inkscape:label="badge 1" />
  <g
     inkscape:label="badge"
     inkscape:groupmode="layer"
     id="layer1"
     style="display:inline">
    <path
       id="path12"
       style="fill:#ffffff;fill-opacity:1;stroke:#ffffff;stroke-width:2.64583;stroke-dasharray:none;stroke-opacity:1"
       inkscape:transform-center-y="3.1587291"
       d="M 37.494993,81.437373 6.0353351,67.291022 5.9587451,3.8496728 l 63.0724699,-1e-6 -0.0766,63.4413502 z"
       sodipodi:nodetypes="cccccc"
       inkscape:label="main shape" />
    <path
       id="path1"
       style="stroke-width:0.264583"
       inkscape:transform-center-y="3.1587291"
       d="M 37.494993,81.437373 6.0353352,67.291022 5.9587452,3.8496728 l 63.0724698,-1e-6 -0.0766,63.4413502 z"
       sodipodi:nodetypes="cccccc"
       inkscape:label="main shape" />
    <path
       style="font-size:14.129px;font-family:Marion;-inkscape-font-specification:Marion;fill:#ffffff;fill-opacity:1;stroke-width:0.183197"
       d="m 8.39507,66.054609 v -0.447003 q 1.3559103,0 1.3559103,-1.072808 v -7.003051 q 0,-0.894006 -1.4155104,-0.894006 v -0.461903 h 2.4883171 q 0.491704,0 0.759906,0 0.283102,-0.01491 0.491703,-0.01491 0.223502,-0.0149 0.432104,-0.0149 0.223502,-0.0149 0.596004,-0.0149 3.337625,0 3.337625,2.890621 0,0.566203 -0.208602,1.057907 -0.193702,0.491703 -0.610905,0.864207 -0.417202,0.372502 -1.057907,0.581103 -0.640704,0.208602 -1.519811,0.208602 -0.476804,0 -0.938707,-0.0298 -0.447004,-0.0447 -0.879107,-0.134101 v 2.905522 q 0,1.132407 1.475111,1.132407 V 66.0546 Z m 3.456825,-9.416868 q -0.625805,0 -0.625805,0.789706 v 3.590925 q 0.372503,0.07451 0.819506,0.119202 0.447004,0.0447 0.998308,0.0447 0.491703,0 0.834406,-0.178801 0.357603,-0.193703 0.581103,-0.491704 0.238403,-0.312903 0.342703,-0.715206 0.104298,-0.402302 0.104298,-0.834406 0,-2.324417 -2.66712,-2.324417 z m 6.019639,9.416868 v -0.447003 q 1.311209,0 1.311209,-0.804606 v -7.032851 q 0,-1.132408 -1.47511,-1.132408 v -0.461903 h 4.306131 v 0.461903 q -1.37081,0 -1.37081,1.132408 V 64.803 q 0,0.625804 0.968507,0.625804 h 0.685405 q 0.685405,0 1.192009,-0.0894 0.506603,-0.104298 0.864205,-0.283102 0.655604,-0.357603 1.177103,-2.130716 l 0.402311,0.05961 -0.447003,3.069423 z m 8.716569,0 v -0.447003 q 1.370812,0 1.370812,-0.968507 V 57.88935 q 0,-1.251609 -1.47511,-1.251609 v -0.461903 h 7.822559 l 0.119198,2.786319 -0.461904,0.05961 q -0.1341,-0.804605 -0.402299,-1.251609 -0.2682,-0.447003 -0.65561,-0.655604 -0.372497,-0.223502 -0.864204,-0.253302 -0.491706,-0.0447 -1.07281,-0.0447 h -0.417197 q -1.132415,0 -1.132415,0.670505 v 2.66712 q 0,0.447003 0.357607,0.447003 h 0.506608 q 0.372497,0 0.685397,-0.0298 0.327805,-0.0447 0.566203,-0.193701 0.253309,-0.1639 0.402309,-0.476803 0.163903,-0.327802 0.223497,-0.879106 h 0.551311 v 3.859128 h -0.551311 q -0.05959,-0.551304 -0.178804,-0.864207 -0.119198,-0.327802 -0.342694,-0.491704 -0.223507,-0.178801 -0.551301,-0.223501 -0.327812,-0.05961 -0.804607,-0.05961 h -0.178804 q -0.685411,0 -0.685411,0.491704 v 2.84592 q 0,0.849306 1.192008,0.849306 h 0.461912 q 0.9387,0 1.504902,-0.134101 0.581114,-0.149001 0.93871,-0.447003 0.357606,-0.312902 0.566202,-0.774805 0.223507,-0.461904 0.447003,-1.087708 l 0.40231,0.119201 -0.40231,2.950221 z m 9.565878,0 v -0.447003 q 0.447001,0 0.71521,-0.0447 0.283102,-0.0447 0.432103,-0.178801 0.163902,-0.149001 0.208596,-0.417203 0.05958,-0.283102 0.05958,-0.730105 v -6.183544 q 0,-0.521505 -0.07445,-0.774806 -0.07445,-0.268202 -0.253298,-0.372503 -0.178804,-0.119201 -0.461905,-0.149002 -0.283102,-0.0298 -0.685408,-0.1192 v -0.4619 q 0.298002,0.0447 0.625803,0.05961 0.327805,0 0.67051,0 0.447004,0 0.834402,-0.01491 0.402311,-0.0149 0.774808,-0.0298 0.387409,-0.0298 0.789709,-0.0447 0.4172,-0.0149 0.894007,-0.0149 1.266503,0 2.249914,0.342702 0.983402,0.342703 1.653913,0.983408 0.6705,0.640704 1.013205,1.579411 0.357607,0.923806 0.357607,2.086014 0,1.132409 -0.342706,2.041315 -0.342706,0.908907 -1.087711,1.549612 -0.730104,0.640705 -1.877409,0.998306 -1.147313,0.342703 -2.756522,0.342703 z m 4.648833,-0.581104 q 1.758217,0 2.607521,-1.043008 0.849303,-1.057908 0.849303,-3.307824 0,-2.235016 -0.9536,-3.292923 -0.953612,-1.072809 -2.756522,-1.072809 h -0.596005 q -0.2682,0 -0.447003,0.0298 -0.178804,0.0149 -0.283101,0.119201 -0.104297,0.0894 -0.149002,0.268202 -0.04471,0.178801 -0.04471,0.491704 v 6.675247 q 0,0.402303 0.05959,0.640705 0.07445,0.223502 0.223496,0.342703 0.163902,0.104297 0.417201,0.134101 0.253309,0.0149 0.625806,0.0149 z m 14.974604,0.745005 -1.07281,-0.789706 q -0.506607,0.387404 -1.221811,0.625805 -0.700299,0.223502 -1.445304,0.223502 -1.028117,0 -1.87742,-0.387404 -0.849303,-0.387402 -1.47511,-1.057907 -0.610905,-0.685405 -0.95361,-1.594312 -0.342703,-0.908906 -0.342703,-1.951913 0,-1.028109 0.342703,-1.981715 0.357606,-0.968506 0.998314,-1.713513 0.640697,-0.745005 1.519813,-1.192008 0.894007,-0.447003 1.951905,-0.447003 0.640708,0 1.221818,0.223502 0.596004,0.223501 1.162207,0.521503 0.5364,-0.536404 1.072809,-0.625805 0.506597,1.236709 0.506597,3.397225 h -0.506597 q -0.327804,-1.311209 -1.162217,-2.115815 -0.834401,-0.819506 -2.115814,-0.819506 -0.908908,0 -1.534704,0.387403 -0.625806,0.372503 -1.028117,1.013207 -0.387398,0.625804 -0.566201,1.44531 -0.163903,0.819506 -0.163903,1.683713 0,0.938706 0.193705,1.773113 0.208606,0.834406 0.625807,1.460211 0.4172,0.625804 1.028106,0.998306 0.610906,0.372503 1.445307,0.372503 0.491707,0 0.908905,-0.1192 0.432112,-0.119202 0.759907,-0.372503 0.327804,-0.253302 0.506608,-0.640705 0.193704,-0.402303 0.193704,-0.968507 0,-1.549611 -1.519813,-1.549611 v -0.447004 h 4.261426 v 0.447004 q -1.326109,0 -1.326109,1.132407 v 3.069423 z m 2.533018,-0.163901 v -0.447003 q 1.370809,0 1.370809,-0.968507 V 57.88935 q 0,-1.251609 -1.475117,-1.251609 v -0.461903 h 7.822555 l 0.11921,2.786319 -0.461904,0.05961 q -0.134099,-0.804605 -0.40231,-1.251609 -0.268201,-0.447003 -0.655598,-0.655604 -0.372504,-0.223502 -0.864213,-0.253302 -0.491696,-0.0447 -1.072808,-0.0447 h -0.417201 q -1.132404,0 -1.132404,0.670505 v 2.66712 q 0,0.447003 0.357606,0.447003 h 0.506598 q 0.372508,0 0.685401,-0.0298 0.327804,-0.0447 0.566212,-0.193701 0.253298,-0.1639 0.4023,-0.476803 0.163902,-0.327802 0.223497,-0.879106 h 0.551308 v 3.859128 h -0.551308 q -0.05959,-0.551304 -0.178793,-0.864207 -0.11921,-0.327802 -0.342706,-0.491704 -0.223508,-0.178801 -0.551301,-0.223501 -0.327804,-0.05961 -0.80461,-0.05961 h -0.178803 q -0.685401,0 -0.685401,0.491704 v 2.84592 q 0,0.849306 1.192009,0.849306 h 0.461903 q 0.938699,0 1.504912,-0.134101 0.581099,-0.149001 0.938706,-0.447003 0.357597,-0.312902 0.566202,-0.774805 0.223496,-0.461904 0.447004,-1.087708 l 0.402299,0.119201 -0.402299,2.950221 z"
       id="text5"
       inkscape:label="pledge"
       aria-label="PLEDGE" />
    <path
       style="font-size:21.8754px;font-family:Marion;-inkscape-font-specification:Marion;fill:#ffffff;fill-opacity:1;stroke-width:0.283639"
       d="m 11.588172,53.897933 v -0.692079 q 2.468413,0 2.468413,-2.122374 V 40.448545 q 0,-0.853565 -1.130395,-0.853565 -1.522572,0 -2.468413,0.991979 -0.9458404,0.968911 -1.4072264,2.952868 L 8.3354027,43.355273 8.958274,38.441517 q 0.5305937,0.06921 0.9919798,0.115346 0.4844542,0.04614 0.9227712,0.04614 h 8.881671 q 0.484455,0 0.991979,-0.04614 0.507525,-0.04614 1.038118,-0.115346 v 4.821479 l -0.622871,0.09228 q -0.276832,-3.691085 -3.691085,-3.691085 -1.153464,0 -1.153464,0.784357 v 10.634935 q 0,2.122374 2.491483,2.122374 v 0.692079 z m 18.155522,0 v -0.692079 q 0.322964,-0.04614 0.669003,-0.09227 0.369112,-0.04614 0.645945,-0.115347 0.299901,-0.06921 0.484452,-0.161484 0.207625,-0.115347 0.207625,-0.253763 -0.0231,-0.09228 -0.04619,-0.253762 0,-0.184554 -0.11535,-0.438316 l -1.038113,-2.837527 q -0.253763,-0.5998 -1.407226,-0.5998 h -3.437328 q -0.87663,0 -1.061184,0.5998 l -0.784355,2.399206 q -0.09228,0.207623 -0.09228,0.5998 0,1.061188 2.0301,1.061188 v 0.784355 h -5.190595 v -0.784355 q 0.669009,-0.04614 1.130395,-0.461385 0.484454,-0.415249 0.807425,-1.199603 l 5.536629,-13.195627 0.692076,0.276831 5.467416,13.70315 q 0.322973,0.484456 0.507524,0.599803 0.04619,0.04614 0.369113,0.138414 0.346039,0.06921 0.945839,0.230693 v 0.692079 z m -2.007027,-12.388202 -2.030102,4.844548 q -0.253762,0.553662 -0.253762,0.784356 0,0.346039 0.853564,0.346039 h 2.906728 q 0.692077,0 0.692077,-0.276832 0,-0.115346 -0.253763,-0.761285 z M 46.67654,53.897933 v -0.692079 q 1.314948,0 1.314948,-0.369107 0,-0.299901 -0.599798,-1.130395 l -4.152468,-5.352073 -1.038124,0.945841 q -0.253759,0.230693 -0.461385,0.530592 -0.184551,0.299901 -0.253763,0.715148 v 3.068215 q 0,1.591779 2.306936,1.591779 v 0.692079 h -6.690092 v -0.692079 q 2.122366,0 2.122366,-1.591779 V 41.002206 q 0,-1.684056 -2.283852,-1.684056 v -0.715148 h 6.574741 v 0.715148 q -2.030099,0 -2.030099,1.684056 v 5.605836 l 5.375152,-5.098311 q 0.530588,-0.484455 0.692076,-0.761287 0.184547,-0.299899 0.184547,-0.807424 0,-0.62287 -1.591773,-0.62287 v -0.715148 h 5.974941 v 0.715148 q -0.692076,0.06921 -1.153464,0.207623 -0.438314,0.115346 -0.830489,0.369108 -0.392187,0.230693 -0.8305,0.64594 -0.438314,0.392177 -1.13039,1.061187 l -3.252774,3.160491 5.259801,6.851576 q 0.322963,0.346039 0.599801,0.645939 0.276826,0.299901 0.576727,0.507525 0.322974,0.207623 0.692075,0.322969 0.392186,0.115346 0.945839,0.115346 v 0.692079 z m 7.059223,0 v -0.692079 q 2.122365,0 2.122365,-1.499502 V 41.255969 q 0,-1.937819 -2.283853,-1.937819 v -0.715148 h 12.111369 l 0.184551,4.313955 -0.71515,0.09228 Q 64.94743,41.763493 64.53218,41.071415 64.116934,40.379337 63.517132,40.056366 62.940395,39.710327 62.179118,39.664188 61.41783,39.594976 60.518129,39.594976 H 59.87218 q -1.753261,0 -1.753261,1.038117 v 4.129401 q 0,0.692078 0.553662,0.692078 h 0.784359 q 0.576727,0 1.061189,-0.04614 0.507515,-0.06921 0.876626,-0.299901 0.392176,-0.253763 0.622876,-0.738217 0.253762,-0.507525 0.346037,-1.361088 h 0.853565 v 5.974943 h -0.853565 q -0.09227,-0.853563 -0.276836,-1.338017 -0.184551,-0.507525 -0.530589,-0.761287 -0.346038,-0.27683 -0.853564,-0.346038 -0.507524,-0.09228 -1.245739,-0.09228 h -0.276836 q -1.061185,0 -1.061185,0.761286 v 4.406233 q 0,1.314948 1.845547,1.314948 h 0.715139 q 1.453365,0 2.330002,-0.207623 0.899701,-0.230693 1.453362,-0.692079 0.553662,-0.484455 0.876637,-1.199602 0.346038,-0.715148 0.692076,-1.684057 l 0.622876,0.184554 -0.622876,4.567717 z"
       id="text4"
       inkscape:label="take"
       aria-label="TAKE" />
    <path
       style="font-size:25.5654px;font-family:Marion;-inkscape-font-specification:Marion;fill:#ffffff;fill-opacity:1;stroke-width:0.28084"
       d="m 8.5242349,35.905959 v -0.80882 q 2.3725381,0 2.3725381,-2.156852 V 21.239359 q 0,-2.372538 -2.5612629,-2.372538 v -0.83578 H 22.16633 l 0.431371,4.960761 -0.943623,0.08088 q -0.242646,-1.348028 -0.727938,-2.102927 -0.458332,-0.781859 -1.159309,-1.159308 -0.700977,-0.40441 -1.644599,-0.512252 -0.916663,-0.107847 -2.102933,-0.107847 h -0.80882 q -1.6446,0 -1.6446,1.105387 v 4.745077 q 0,0.997544 1.536758,0.997544 h 0.40441 q 0.889701,0 1.401954,-0.107847 0.512252,-0.134803 0.808821,-0.431371 0.296566,-0.323527 0.45833,-0.83578 0.161764,-0.539214 0.323528,-1.374994 h 0.916664 v 6.874968 H 18.49968 v -0.539213 q 0,-0.377449 -0.107847,-0.781859 -0.08088,-0.431371 -0.404409,-0.781859 -0.323528,-0.377449 -0.970584,-0.620095 -0.620096,-0.242645 -1.725483,-0.242645 h -1.24019 q -0.485292,0 -0.485292,0.808818 v 4.933803 q 0,2.156852 2.776948,2.156852 v 0.808819 z m 22.2185941,0 v -0.80882 q 0.377452,-0.05392 0.78186,-0.107847 0.431375,-0.05392 0.754908,-0.134802 0.350489,-0.08089 0.566171,-0.188726 0.242647,-0.134802 0.242647,-0.296566 -0.02699,-0.107847 -0.05389,-0.296568 0,-0.215685 -0.134807,-0.512252 l -1.213226,-3.316161 q -0.296569,-0.700978 -1.644598,-0.700978 h -4.017145 q -1.024504,0 -1.240189,0.700978 l -0.916663,2.803907 q -0.107847,0.242648 -0.107847,0.700979 0,1.240189 2.372536,1.240189 v 0.916662 h -6.066147 v -0.916662 q 0.781859,-0.05392 1.321072,-0.539212 0.566175,-0.485292 0.943623,-1.401956 l 6.470563,-15.421498 0.808818,0.323528 6.389674,16.014634 q 0.377454,0.566174 0.593133,0.700976 0.05389,0.05392 0.431374,0.161764 0.404409,0.08089 1.105386,0.269607 v 0.808819 z m -2.345577,-14.477876 -2.372534,5.66174 q -0.296567,0.647056 -0.296567,0.916661 0,0.404411 0.997544,0.404411 h 3.397044 q 0.808825,0 0.808825,-0.323527 0,-0.134804 -0.296575,-0.889702 z m 10.865155,14.477876 v -0.80882 q 2.56126,0 2.56126,-1.860284 V 21.239359 q 0,-2.372538 -2.669101,-2.372538 v -0.83578 h 7.791629 v 0.83578 q -2.480385,0 -2.480385,2.372538 v 11.997496 q 0,1.860284 2.588225,1.860284 v 0.80882 z M 56.975577,26.1462 q 0.808818,0 1.563715,-0.107848 0.754905,-0.107847 1.348041,-0.485292 0.593136,-0.377448 0.943624,-1.078426 0.377444,-0.700977 0.377444,-1.914206 0,-1.024505 -0.377444,-1.698522 -0.350488,-0.674017 -0.943624,-1.051467 -0.566181,-0.40441 -1.267154,-0.566173 -0.700978,-0.161765 -1.374999,-0.161765 h -1.294102 q -1.02451,0 -1.02451,1.509798 v 5.149486 q 0.107836,0.40441 0.647056,0.40441 z m 9.678873,7.414183 q 0,0.323528 -0.161761,0.781857 -0.134795,0.458332 -0.458329,0.862742 -0.296568,0.40441 -0.754897,0.700977 -0.431375,0.296568 -0.997542,0.296568 -1.644602,0 -2.426464,-0.539213 -0.781863,-0.566175 -1.159307,-1.806365 -0.323532,-1.024505 -0.647056,-2.183813 -0.323533,-1.18627 -0.781862,-2.156853 -0.431364,-0.997545 -1.078428,-1.644601 -0.647057,-0.674016 -1.617636,-0.674016 h -0.808817 q -0.727943,0 -0.835783,0.296567 v 5.850464 q 0,1.752442 2.480383,1.752442 v 0.80882 H 49.80404 v -0.80882 q 2.372543,0 2.372543,-1.752442 V 20.592303 q 0,-1.725482 -2.56127,-1.725482 v -0.83578 h 3.370089 q 0.8897,0 1.509791,0 0.620101,-0.02696 1.186271,-0.05392 0.593137,-0.02696 1.240193,-0.02696 0.674012,-0.02696 1.617635,-0.02696 1.159314,0 2.183813,0.350487 1.024511,0.323529 1.752443,0.916664 0.754907,0.593135 1.186272,1.401954 0.431374,0.80882 0.431374,1.752443 0,0.943624 -0.350489,1.67156 -0.350488,0.727939 -0.997544,1.267152 -0.620101,0.539213 -1.48284,0.916664 -0.862738,0.377448 -1.914204,0.593134 v 0.08088 q 1.294113,0.620096 2.129896,1.563718 0.862739,0.916662 1.159306,1.779403 0.161762,0.539214 0.377444,1.294112 0.215692,0.7549 0.485295,1.428916 0.296569,0.674017 0.674012,1.159308 0.37745,0.458331 0.916666,0.458331 0.647056,0 0.943624,-1.213229 z"
       id="text3"
       inkscape:label="fair"
       aria-label="FAIR" />
  </g>
  <g
     inkscape:groupmode="layer"
     id="layer2"
     inkscape:label="banner"
     style="fill:#0000ff" />
  <g
     id="g38"
     transform="matrix(0.74136884,0,0,0.41259167,-45.736735,-19.969409)"
     style="display:inline">
    <path
       id="path35"
       style="display:inline;fill:#ffffff;stroke-width:0.232761"
       d="m 72.30275,61.480367 5.373722,10.864116 h 7.224342 L 79.527091,61.480367 Z" />
    <path
       id="path36"
       style="display:inline;fill:#ffffff;stroke-width:0.232761"
       d="m 86.703516,61.480367 5.373722,10.864116 H 99.30158 L 93.927857,61.480367 Z" />
    <path
       id="path37"
       style="display:inline;fill:#ffffff;stroke-width:0.232761"
       d="m 100.57092,61.480367 5.37371,10.864116 h 7.22434 l -5.37372,-10.864116 z" />
    <path
       id="path38"
       style="display:inline;fill:#ffffff;stroke-width:0.232761"
       d="m 114.43834,61.480367 5.37371,10.864116 h 7.22434 l -5.37372,-10.864116 z" />
    <path
       id="path8"
       style="display:inline;fill:#ffffff;stroke-width:0.232761"
       d="m 127.03639,61.480367 5.37371,10.864116 h 7.22434 l -5.37372,-10.864116 z" />
    <path
       id="path10"
       style="display:inline;fill:#ffffff;stroke-width:0.232761"
       d="m 139.63444,61.480367 5.37371,10.864116 h 7.22434 l -5.37372,-10.864116 z" />
  </g>
  <g
     id="g6"
     transform="matrix(0.74136884,0,0,-0.41259167,-45.736735,40.819661)"
     style="display:inline">
    <path
       id="path3"
       style="display:inline;fill:#ffffff;stroke-width:0.232761"
       d="m 72.30275,61.480367 5.373722,10.864116 h 7.224342 L 79.527091,61.480367 Z" />
    <path
       id="path4"
       style="display:inline;fill:#ffffff;stroke-width:0.232761"
       d="m 86.703516,61.480367 5.373722,10.864116 H 99.30158 L 93.927857,61.480367 Z" />
    <path
       id="path5"
       style="display:inline;fill:#ffffff;stroke-width:0.232761"
       d="m 100.57092,61.480367 5.37371,10.864116 h 7.22434 l -5.37372,-10.864116 z" />
    <path
       id="path6"
       style="display:inline;fill:#ffffff;stroke-width:0.232761"
       d="m 114.43834,61.480367 5.37371,10.864116 h 7.22434 l -5.37372,-10.864116 z" />
    <path
       id="path9"
       style="display:inline;fill:#ffffff;stroke-width:0.232761"
       d="m 127.03639,61.480367 5.37371,10.864116 h 7.22434 l -5.37372,-10.864116 z" />
    <path
       id="path11"
       style="display:inline;fill:#ffffff;stroke-width:0.232761"
       d="m 139.63444,61.480367 5.37371,10.864116 h 7.22434 l -5.37372,-10.864116 z" />
  </g>
</svg>
