<?xml version="1.0" encoding="UTF-8" standalone="no"?>
<!-- Created with Inkscape (http://www.inkscape.org/) -->

<svg
   width="75mm"
   height="85mm"
   viewBox="0 0 75 85"
   version="1.1"
   id="svg1"
   sodipodi:docname="fairtakepledge-logo-mark.svg"
   inkscape:version="1.4.4 (dcaf3e7, 2026-05-05)"
   xmlns:inkscape="http://www.inkscape.org/namespaces/inkscape"
   xmlns:sodipodi="http://sodipodi.sourceforge.net/DTD/sodipodi-0.dtd"
   xmlns="http://www.w3.org/2000/svg"
   xmlns:svg="http://www.w3.org/2000/svg">
  <sodipodi:namedview
     id="namedview1"
     pagecolor="#ffffff"
     bordercolor="#000000"
     borderopacity="0.25"
     inkscape:showpageshadow="2"
     inkscape:pageopacity="0.0"
     inkscape:pagecheckerboard="0"
     inkscape:deskcolor="#d1d1d1"
     inkscape:document-units="px"
     showguides="true"
     inkscape:zoom="0.3535534"
     inkscape:cx="247.48737"
     inkscape:cy="350.72495"
     inkscape:window-width="1919"
     inkscape:window-height="1007"
     inkscape:window-x="0"
     inkscape:window-y="25"
     inkscape:window-maximized="0"
     inkscape:current-layer="layer1"
     showgrid="false" />
  <defs
     id="defs1" />
  <g
     inkscape:label="badge"
     inkscape:groupmode="layer"
     id="layer1"
     style="display:inline">
    <path
       id="path12"
       style="fill:#ffffff;fill-opacity:1;stroke:#ffffff;stroke-width:2.64583;stroke-dasharray:none;stroke-opacity:1"
       inkscape:transform-center-y="3.1587291"
       d="M 37.494993,81.437373 6.0353351,67.291022 5.9587451,3.8496728 l 63.0724699,-1e-6 -0.0766,63.4413502 z"
       sodipodi:nodetypes="cccccc"
       inkscape:label="main shape" />
    <path
       id="path1"
       style="stroke-width:0.264583"
       inkscape:transform-center-y="3.1587291"
       d="M 37.494993,81.437373 6.035335,67.291022 5.958745,3.8496728 l 63.07247,-1e-6 -0.0766,63.4413502 z"
       sodipodi:nodetypes="cccccc"
       inkscape:label="main shape" />
  </g>
  <g
     inkscape:groupmode="layer"
     id="layer2"
     inkscape:label="banner"
     style="fill:#0000ff" />
  <g
     id="g38"
     transform="matrix(1.443131,0,0,0.68554156,-96.079192,-37.015053)"
     style="display:inline">
    <path
       id="path35"
       style="display:inline;fill:#ffffff;stroke-width:0.232761"
       d="m 72.30275,61.480367 5.373722,10.864116 h 7.224342 L 79.527091,61.480367 Z" />
    <path
       id="path36"
       style="display:inline;fill:#ffffff;stroke-width:0.232761"
       d="m 86.703516,61.480367 5.373722,10.864116 H 99.30158 L 93.927857,61.480367 Z" />
    <path
       id="path37"
       style="display:inline;fill:#ffffff;stroke-width:0.232761"
       d="m 100.57092,61.480367 5.37371,10.864116 h 7.22434 l -5.37372,-10.864116 z" />
  </g>
  <g
     id="g6"
     transform="matrix(1.443131,0,0,-0.68554156,-96.079192,64.532461)"
     style="display:inline">
    <path
       id="path3"
       style="display:inline;fill:#ffffff;stroke-width:0.232761"
       d="m 72.30275,61.480367 5.373722,10.864116 h 7.224342 L 79.527091,61.480367 Z" />
    <path
       id="path4"
       style="display:inline;fill:#ffffff;stroke-width:0.232761"
       d="m 86.703516,61.480367 5.373722,10.864116 H 99.30158 L 93.927857,61.480367 Z" />
    <path
       id="path5"
       style="display:inline;fill:#ffffff;stroke-width:0.232761"
       d="m 100.57092,61.480367 5.37371,10.864116 h 7.22434 l -5.37372,-10.864116 z" />
  </g>
  <path
     style="font-size:31.1412px;font-family:Marion;-inkscape-font-specification:Marion;stroke-width:3.24386;paint-order:stroke fill markers;stroke:none;stroke-opacity:1;fill:#ffffff;fill-opacity:1"
     d="m 20.143817,48.373638 v -0.934236 q 2.740426,0 2.740426,-2.491296 v -13.51528 q 0,-2.740426 -2.958414,-2.740426 v -0.965377 h 15.975435 l 0.498259,5.729981 -1.089942,0.09342 Q 35.02931,31.993367 34.468769,31.121414 33.939368,30.218319 33.129697,29.782342 32.320026,29.315224 31.230084,29.19066 30.171283,29.066095 28.801071,29.066095 h -0.934236 q -1.899614,0 -1.899614,1.276789 v 5.480851 q 0,1.152224 1.775049,1.152224 h 0.467118 q 1.027659,0 1.619342,-0.124565 0.591683,-0.155706 0.934236,-0.498259 0.342553,-0.373694 0.5294,-0.965377 0.186848,-0.622824 0.373695,-1.588201 h 1.058801 v 7.941006 h -1.058801 v -0.622824 q 0,-0.435977 -0.124565,-0.903095 -0.09342,-0.498259 -0.467118,-0.903095 -0.373694,-0.435977 -1.121083,-0.716247 -0.716248,-0.280271 -1.993037,-0.280271 h -1.432495 q -0.560542,0 -0.560542,0.934236 v 5.698839 q 0,2.491296 3.207544,2.491296 v 0.934236 z m 22.45047,0 v -0.934236 q 3.332108,0 3.332108,-2.86499 V 30.218319 q 0,-1.152224 -1.525919,-1.152224 -2.055319,0 -3.332108,1.339071 -1.276789,1.307931 -1.899613,3.986074 l -0.965378,-0.24913 0.840813,-6.633075 q 0.716247,0.09342 1.339071,0.155706 0.653966,0.06228 1.245648,0.06228 h 11.989362 q 0.653965,0 1.339072,-0.06228 0.685106,-0.06228 1.401354,-0.155706 v 6.50851 l -0.840813,0.124565 q -0.373694,-4.982592 -4.982592,-4.982592 -1.55706,0 -1.55706,1.058801 v 14.356093 q 0,2.86499 3.36325,2.86499 v 0.934236 z"
     id="text1"
     aria-label="FT" />
  <path
     style="font-size:31.1412px;font-family:Marion;-inkscape-font-specification:Marion;stroke-width:3.24386;paint-order:stroke fill markers;stroke:none;stroke-opacity:1;fill:#ffffff;fill-opacity:1"
     d="m 29.382932,71.280777 v -0.934236 q 2.833849,0 2.833849,-2.242166 V 53.468011 q 0,-1.868472 -2.958414,-1.868472 v -0.965377 h 5.200581 q 1.027659,0 1.588201,0 0.591683,-0.03114 1.027659,-0.03114 0.467118,-0.03114 0.903095,-0.03114 0.467118,-0.03114 1.245648,-0.03114 6.975629,0 6.975629,6.041393 0,1.183366 -0.435977,2.211025 -0.404836,1.02766 -1.276789,1.80619 -0.871954,0.77853 -2.211025,1.214506 -1.339072,0.435977 -3.176403,0.435977 -0.996518,0 -1.961895,-0.06228 -0.934236,-0.09342 -1.837331,-0.280271 v 6.072534 q 0,2.366731 3.082979,2.366731 v 0.934236 z M 36.60769,51.599539 q -1.30793,0 -1.30793,1.650484 v 7.505029 q 0.77853,0.155706 1.712766,0.249129 0.934236,0.09342 2.08646,0.09342 1.02766,0 1.743907,-0.373695 0.747389,-0.404835 1.214507,-1.027659 0.498259,-0.653965 0.716248,-1.494778 0.217988,-0.840812 0.217988,-1.743907 0,-4.858027 -5.574274,-4.858027 z"
     id="text2"
     aria-label="P" />
</svg>
