<?xml version="1.0" encoding="UTF-8" standalone="no"?>
<!-- Created with Inkscape (http://www.inkscape.org/) -->

<svg
   width="75mm"
   height="85mm"
   viewBox="0 0 75 85"
   version="1.1"
   id="svg1"
   sodipodi:docname="fairtakepledge-logo.svg"
   inkscape:version="1.4.4 (dcaf3e7, 2026-05-05)"
   xmlns:inkscape="http://www.inkscape.org/namespaces/inkscape"
   xmlns:sodipodi="http://sodipodi.sourceforge.net/DTD/sodipodi-0.dtd"
   xmlns="http://www.w3.org/2000/svg"
   xmlns:svg="http://www.w3.org/2000/svg">
  <sodipodi:namedview
     id="namedview1"
     pagecolor="#ffffff"
     bordercolor="#000000"
     borderopacity="0.25"
     inkscape:showpageshadow="2"
     inkscape:pageopacity="0.0"
     inkscape:pagecheckerboard="0"
     inkscape:deskcolor="#d1d1d1"
     inkscape:document-units="px"
     showguides="true"
     inkscape:zoom="2"
     inkscape:cx="145.5"
     inkscape:cy="168.5"
     inkscape:window-width="1919"
     inkscape:window-height="1007"
     inkscape:window-x="0"
     inkscape:window-y="25"
     inkscape:window-maximized="0"
     inkscape:current-layer="layer1"
     showgrid="false" />
  <defs
     id="defs1" />
  <g
     inkscape:label="badge"
     inkscape:groupmode="layer"
     id="layer1"
     style="display:inline">
    <path
       id="path12"
       style="display:inline;fill:#ffffff;fill-opacity:1;stroke:#ffffff;stroke-width:2.64583;stroke-dasharray:none;stroke-opacity:1"
       inkscape:transform-center-y="3.1587291"
       d="M 37.494993,81.437373 6.0353351,67.291022 5.9587451,3.8496728 l 63.0724699,-1e-6 -0.0766,63.4413502 z"
       sodipodi:nodetypes="cccccc"
       inkscape:label="main shape" />
    <path
       id="path1"
       style="stroke-width:0.264583"
       inkscape:transform-center-y="3.1587291"
       d="M 37.494993,81.437373 6.0353353,67.291022 5.9587453,3.8496728 l 63.0724697,-1e-6 -0.0766,63.4413502 z"
       sodipodi:nodetypes="cccccc"
       inkscape:label="main shape" />
    <path
       d="m 8.323712,35.200127 v -1.007534 q 2.063045,0 2.063045,-1.75119 V 22.246121 q 0,-1.895123 -2.2309673,-1.895123 V 19.295486 H 21.637551 l 0.407811,4.605869 -1.583267,0.143934 q -0.2159,-1.175457 -0.623711,-1.871135 -0.383823,-0.695678 -0.983545,-1.031522 -0.575734,-0.335845 -1.391356,-0.4318 -0.815623,-0.09596 -1.847146,-0.09596 -1.2954,0 -1.2954,0.815622 v 4.126091 q 0,0.743656 1.199445,0.743656 0.599722,0 0.959556,-0.09596 0.383822,-0.119944 0.599722,-0.383822 0.239889,-0.287867 0.359834,-0.743656 0.119944,-0.479778 0.263878,-1.199445 h 1.2954 v 6.285092 h -1.319389 v -0.599723 q 0,-0.287866 -0.07197,-0.623711 -0.07197,-0.359834 -0.335845,-0.6477 -0.263877,-0.311856 -0.791633,-0.503767 -0.527756,-0.191911 -1.415345,-0.191911 -0.455789,0 -0.599723,0.143933 -0.143933,0.143933 -0.143933,0.407811 v 4.294013 q 0,1.75119 2.446868,1.75119 v 1.007534 z m 21.405526,0 v -0.983545 q 0.335844,-0.04798 0.695678,-0.09596 0.383822,-0.04798 0.671689,-0.09596 0.311856,-0.07197 0.503767,-0.143934 0.191911,-0.09596 0.191911,-0.191911 0,-0.119944 -0.07197,-0.263878 -0.04798,-0.167922 -0.119945,-0.359833 L 30.54486,30.138469 Q 30.448905,29.874591 30.065082,29.778635 29.68126,29.658691 29.273449,29.658691 H 25.77107 q -0.767645,0 -0.935568,0.479778 l -0.767644,2.446868 q -0.04798,0.119944 -0.07197,0.263878 -0.02399,0.143933 -0.02399,0.311855 0,0.935567 2.039056,0.935567 v 1.10349 h -5.589413 v -1.10349 q 1.343378,-0.09596 1.991079,-1.631245 l 5.685369,-13.553728 2.230967,0.311856 5.589414,14.057495 q 0.09595,0.263878 0.311856,0.4318 0.2159,0.167922 0.479778,0.263878 0.287866,0.09596 0.575733,0.167922 0.287867,0.04798 0.551745,0.07197 v 0.983545 z m -1.919112,-12.354283 -1.895123,4.581879 q -0.263878,0.575734 -0.263878,0.719667 0,0.191911 0.743656,0.191911 h 2.950634 q 0.575734,0 0.575734,-0.09596 0,-0.119945 -0.455789,-1.295401 z m 11.154848,12.354283 v -1.007534 q 2.230967,0 2.230967,-1.463323 V 22.246121 q 0,-1.895123 -2.326923,-1.895123 v -1.055512 h 8.420104 v 1.055512 q -2.135012,0 -2.135012,1.895123 V 32.72927 q 0,1.463323 2.254956,1.463323 v 1.007534 z m 17.991679,-8.827915 q 0.6477,0 1.151467,-0.07197 0.527756,-0.09596 0.887589,-0.383822 0.383823,-0.311856 0.575734,-0.911579 0.2159,-0.599722 0.2159,-1.631245 0,-0.839611 -0.2159,-1.391356 -0.191911,-0.551745 -0.551745,-0.8636 -0.335845,-0.335845 -0.815623,-0.455789 -0.479778,-0.143934 -1.031522,-0.143934 h -0.479778 q -0.719667,0 -0.719667,1.175456 v 4.437947 q 0.07197,0.239889 0.383822,0.239889 z m 9.907415,6.477003 q 0,0.335844 -0.2159,0.791633 -0.2159,0.4318 -0.6477,0.839612 -0.407812,0.407811 -1.007534,0.695678 -0.575734,0.287867 -1.295401,0.287867 -1.487311,0 -2.182989,-0.45579 -0.695679,-0.455789 -0.935567,-1.151467 -0.503767,-1.415345 -0.88759,-2.566812 -0.383822,-1.151467 -0.815622,-1.96709 -0.407812,-0.839611 -0.959556,-1.271411 -0.527756,-0.455789 -1.367368,-0.455789 -0.455789,0 -0.575733,0.167922 v 5.037669 q 0,1.391356 2.135012,1.391356 v 1.007534 h -8.252181 v -1.007534 q 2.063045,0 2.063045,-1.391356 V 21.694376 q 0,-1.343378 -2.230968,-1.343378 v -1.055512 h 3.766257 q 0.791634,0 1.343379,0 0.551744,-0.02399 1.151467,-0.04798 0.599722,-0.02399 1.367367,-0.02399 0.791634,-0.02399 1.991079,-0.02399 1.247423,0 2.135012,0.311856 0.887589,0.311855 1.439334,0.8636 0.575733,0.527756 0.815622,1.271412 0.263878,0.719667 0.263878,1.583267 0,1.631245 -1.247422,2.662768 -1.247423,1.007534 -3.382435,1.271411 0.8636,0.119945 1.487311,0.287867 0.623712,0.167922 1.055512,0.455789 0.4318,0.263878 0.719667,0.671689 0.311856,0.383823 0.551745,0.911579 0.335844,0.767644 0.527756,1.535289 0.191911,0.743656 0.383822,1.343379 0.2159,0.599722 0.455789,0.983544 0.263878,0.359834 0.743656,0.359834 0.527756,0 0.815622,-1.103489 z"
       id="text1"
       style="font-weight:bold;font-size:23.9889px;font-family:Marion;-inkscape-font-specification:'Marion Bold';fill:#ffffff;stroke-width:6.61954;paint-order:stroke fill markers"
       aria-label="FAIR" />
    <path
       d="m 11.134577,51.927555 v -0.887128 q 2.196698,0 2.196698,-1.774257 v -9.547189 q 0,-0.633663 -0.866006,-0.633663 -0.654785,0 -1.140593,0.232343 -0.464687,0.211221 -0.823762,0.654785 -0.337954,0.443564 -0.5914191,1.119471 -0.2323432,0.654785 -0.4224421,1.541914 L 8.1774826,42.443732 8.7689014,37.754625 q 0.5491746,0.08449 1.2039598,0.126733 0.6547848,0.04224 1.0349828,0.04224 h 8.34323 q 0.464686,0 1.140593,-0.04224 0.675908,-0.04224 1.225082,-0.126733 v 4.625741 l -1.225082,0.10561 q -0.10561,-1.668646 -0.718151,-2.492408 -0.591419,-0.823762 -2.069966,-0.823762 -0.90825,0 -0.90825,0.549175 v 9.547189 q 0,1.774257 2.238942,1.774257 v 0.887128 z m 17.700341,0 v -0.866006 q 0.29571,-0.04224 0.612541,-0.08449 0.337954,-0.04225 0.591419,-0.08449 0.274587,-0.06337 0.443564,-0.126732 0.168977,-0.08449 0.168977,-0.168977 0,-0.105611 -0.06337,-0.232343 -0.04224,-0.147855 -0.105611,-0.316832 L 29.55307,47.470792 q -0.08449,-0.232343 -0.422442,-0.316832 -0.337954,-0.10561 -0.69703,-0.10561 h -3.083826 q -0.675908,0 -0.823762,0.422442 l -0.675908,2.154454 q -0.04224,0.105611 -0.06337,0.232343 -0.02112,0.126733 -0.02112,0.274588 0,0.823761 1.795379,0.823761 v 0.971617 h -4.92145 v -0.971617 q 1.182838,-0.08449 1.753135,-1.436302 l 5.005937,-11.933987 1.964356,0.274587 4.921449,12.377551 q 0.08449,0.232343 0.274588,0.380198 0.190099,0.147855 0.422442,0.232343 0.253465,0.08449 0.50693,0.147855 0.253465,0.04224 0.485808,0.06337 v 0.866006 z M 27.14515,41.049673 25.476504,45.083994 q -0.232343,0.506931 -0.232343,0.633663 0,0.168977 0.654785,0.168977 h 2.598019 q 0.50693,0 0.50693,-0.08449 0,-0.105611 -0.40132,-1.140594 z m 18.840923,10.877882 v -0.887128 q 1.20396,0 1.20396,-0.211221 0,-0.126733 -0.105611,-0.40132 -0.10561,-0.274587 -0.40132,-0.718152 l -2.851483,-4.287786 -0.823762,0.739274 q -0.232343,0.232343 -0.380198,0.464686 -0.147855,0.232343 -0.211221,0.570296 v 2.555775 q 0,0.633663 0.422442,0.971616 0.422442,0.316832 1.457425,0.316832 v 0.887128 h -7.266003 v -0.887128 q 1.900989,0 1.900989,-1.288448 v -9.54719 q 0,-1.351814 -2.048844,-1.351814 v -0.929373 h 7.350491 v 0.929373 q -1.8165,0 -1.8165,1.351814 v 4.731351 l 4.562374,-4.372275 q 0.464686,-0.422442 0.612541,-0.654785 0.168976,-0.253465 0.168976,-0.654785 0,-0.40132 -1.436303,-0.40132 v -0.929373 h 5.8297 v 0.908251 q -0.570296,0.06337 -0.971616,0.168976 -0.40132,0.105611 -0.781518,0.316832 -0.380198,0.211221 -0.80264,0.591419 -0.40132,0.359075 -1.013861,0.929372 l -2.365675,2.281187 4.52013,6.547851 q 0.443564,0.633663 0.992738,1.013861 0.549175,0.359076 1.541914,0.359076 v 0.887128 z m 7.963043,0 v -0.887128 q 1.900989,0 1.900989,-1.225082 v -9.378213 q 0,-1.584157 -2.048844,-1.584157 v -0.929373 h 12.124086 l 0.168977,4.139932 -1.288448,0.105611 q -0.190099,-1.161716 -0.549175,-1.774257 -0.359076,-0.633663 -0.866006,-0.90825 -0.506931,-0.29571 -1.161716,-0.337954 -0.654785,-0.06337 -1.457425,-0.06337 -0.697029,0 -1.077227,0.211221 -0.380198,0.190099 -0.380198,0.570297 v 3.717489 q 0,0.506931 0.485809,0.506931 0.50693,0 0.929372,-0.06337 0.422442,-0.06337 0.739274,-0.274587 0.337953,-0.232343 0.549174,-0.675907 0.211221,-0.443564 0.274588,-1.20396 h 1.225081 v 5.618479 h -1.225081 q -0.06337,-0.718152 -0.211221,-1.161716 -0.147855,-0.443564 -0.422442,-0.675907 -0.253466,-0.232343 -0.654786,-0.316831 -0.401319,-0.08449 -0.971616,-0.105611 -0.718152,0.06337 -0.718152,0.570297 v 3.949833 q 0,1.013861 1.584158,1.013861 1.288448,0 2.048844,-0.190099 0.781517,-0.211221 1.267326,-0.612541 0.485808,-0.422442 0.781518,-1.056105 0.295709,-0.633663 0.61254,-1.520792 l 1.20396,0.168977 -0.591419,4.372275 z"
       id="text2"
       style="font-weight:bold;font-size:21.1221px;font-family:Marion;-inkscape-font-specification:'Marion Bold';fill:#ffffff;stroke-width:5.72057;paint-order:stroke fill markers"
       aria-label="TAKE" />
    <path
       style="font-size:14.9808px;font-family:Marion;-inkscape-font-specification:Marion;fill:#ffffff;stroke-width:4.05732;paint-order:stroke fill markers"
       d="m 8.2374114,64.730385 v -0.449424 q 1.3632527,0 1.3632527,-1.078618 v -7.040976 q 0,-0.898848 -1.4231759,-0.898848 v -0.464404 h 2.5017938 q 0.494366,0 0.76402,0 0.284636,-0.01498 0.494367,-0.01498 0.224712,-0.01498 0.434443,-0.01498 0.224712,-0.01498 0.599232,-0.01498 3.355699,0 3.355699,2.906275 0,0.569271 -0.209731,1.063637 -0.19475,0.494367 -0.614213,0.868887 -0.419462,0.37452 -1.063637,0.584251 -0.644174,0.209731 -1.528041,0.209731 -0.479386,0 -0.943791,-0.02996 -0.449424,-0.04494 -0.883867,-0.134827 v 2.921256 q 0,1.138541 1.483099,1.138541 v 0.449424 z m 3.4755456,-9.467866 q -0.629194,0 -0.629194,0.793983 v 3.610373 q 0.37452,0.0749 0.823944,0.119846 0.449424,0.04494 1.003714,0.04494 0.494366,0 0.838925,-0.179769 0.359539,-0.194751 0.584251,-0.494367 0.239693,-0.314596 0.344558,-0.719078 0.104866,-0.404482 0.104866,-0.838925 0,-2.337005 -2.681563,-2.337005 z m 6.052238,9.467866 v -0.449424 q 1.318311,0 1.318311,-0.808963 V 56.40106 q 0,-1.138541 -1.4831,-1.138541 v -0.464404 h 4.329452 v 0.464404 q -1.378234,0 -1.378234,1.138541 v 7.070938 q 0,0.629193 0.973752,0.629193 h 0.689117 q 0.689117,0 1.198464,-0.08988 0.509347,-0.104865 0.868886,-0.284635 0.659155,-0.359539 1.183483,-2.142254 l 0.404482,0.05992 -0.449424,3.086045 z m 8.763779,0 v -0.449424 q 1.378234,0 1.378234,-0.973752 v -6.786302 q 0,-1.258388 -1.4831,-1.258388 v -0.464404 h 7.86492 l 0.119847,2.801409 -0.464405,0.05992 q -0.134827,-0.808963 -0.404482,-1.258387 -0.269654,-0.449424 -0.659155,-0.659155 -0.37452,-0.224712 -0.868886,-0.254674 -0.494367,-0.04494 -1.078618,-0.04494 h -0.419462 q -1.138541,0 -1.138541,0.674136 v 2.681563 q 0,0.449424 0.359539,0.449424 h 0.509347 q 0.37452,0 0.689117,-0.02996 0.329578,-0.04494 0.56927,-0.194751 0.254674,-0.164789 0.404482,-0.479385 0.164789,-0.329578 0.224712,-0.883868 h 0.55429 v 3.880027 h -0.55429 q -0.05992,-0.554289 -0.17977,-0.868886 -0.119846,-0.329577 -0.344558,-0.494366 -0.224712,-0.17977 -0.55429,-0.224712 -0.329577,-0.05992 -0.808963,-0.05992 h -0.179769 q -0.689117,0 -0.689117,0.494366 v 2.861333 q 0,0.853905 1.198464,0.853905 h 0.464405 q 0.94379,0 1.51306,-0.134827 0.584252,-0.149808 0.943791,-0.449424 0.359539,-0.314597 0.56927,-0.779002 0.224712,-0.464404 0.449424,-1.093598 l 0.404482,0.119846 -0.404482,2.966199 z m 9.61768,0 v -0.449424 q 0.449424,0 0.719078,-0.04494 0.284636,-0.04494 0.434444,-0.179769 0.164788,-0.149808 0.209731,-0.419463 0.05992,-0.284635 0.05992,-0.734059 v -6.217032 q 0,-0.524328 -0.0749,-0.779001 -0.0749,-0.269655 -0.254674,-0.37452 -0.179769,-0.119847 -0.464404,-0.149808 -0.284636,-0.02996 -0.689117,-0.119847 v -0.464404 q 0.299616,0.04494 0.629193,0.05992 0.329578,0 0.674136,0 0.449424,0 0.838925,-0.01498 0.404482,-0.01498 0.779002,-0.02996 0.389501,-0.02996 0.793982,-0.04494 0.419463,-0.01498 0.898848,-0.01498 1.273368,0 2.262101,0.344559 0.988733,0.344558 1.662869,0.988732 0.674136,0.644175 1.018694,1.587965 0.359539,0.92881 0.359539,2.097312 0,1.138541 -0.344558,2.05237 -0.344559,0.913828 -1.093599,1.558003 -0.734059,0.644174 -1.88758,1.003713 -1.153522,0.344559 -2.771448,0.344559 z m 4.674009,-0.584251 q 1.767735,0 2.62164,-1.048656 0.853906,-1.063637 0.853906,-3.325738 0,-2.24712 -0.958771,-3.310757 -0.958771,-1.078617 -2.771448,-1.078617 h -0.599232 q -0.269654,0 -0.449424,0.02996 -0.17977,0.01498 -0.284635,0.119847 -0.104866,0.08989 -0.149808,0.269654 -0.04494,0.17977 -0.04494,0.494367 v 6.711398 q 0,0.404481 0.05992,0.644174 0.0749,0.224712 0.224712,0.344559 0.164788,0.104865 0.419462,0.134827 0.254674,0.01498 0.629194,0.01498 z m 15.055694,0.74904 -1.078617,-0.793983 q -0.509347,0.389501 -1.228426,0.629194 -0.704097,0.224712 -1.453137,0.224712 -1.033676,0 -1.887581,-0.389501 -0.853906,-0.389501 -1.483099,-1.063637 -0.614213,-0.689117 -0.958771,-1.602945 -0.344559,-0.913829 -0.344559,-1.962485 0,-1.033675 0.344559,-1.992446 0.359539,-0.973752 1.003713,-1.722792 0.644174,-0.74904 1.528042,-1.198464 0.898848,-0.449424 1.962484,-0.449424 0.644175,0 1.228426,0.224712 0.599232,0.224712 1.168502,0.524328 0.539309,-0.539309 1.078618,-0.629194 0.509347,1.243406 0.509347,3.415622 h -0.509347 q -0.329578,-1.31831 -1.168502,-2.127273 -0.838925,-0.823944 -2.127274,-0.823944 -0.913829,0 -1.543022,0.389501 -0.629194,0.37452 -1.033676,1.018694 -0.3895,0.629194 -0.56927,1.453138 -0.164789,0.823944 -0.164789,1.69283 0,0.94379 0.194751,1.782715 0.209731,0.838925 0.629193,1.468118 0.419463,0.629194 1.033675,1.003714 0.614213,0.37452 1.453138,0.37452 0.494366,0 0.913829,-0.119846 0.434443,-0.119847 0.764021,-0.37452 0.329577,-0.254674 0.509347,-0.644175 0.19475,-0.404481 0.19475,-0.973752 0,-1.558003 -1.528041,-1.558003 v -0.449424 h 4.284508 v 0.449424 q -1.333291,0 -1.333291,1.138541 v 3.086045 z m 2.546736,-0.164789 v -0.449424 q 1.378234,0 1.378234,-0.973752 v -6.786302 q 0,-1.258388 -1.483099,-1.258388 v -0.464404 h 7.864919 l 0.119847,2.801409 -0.464405,0.05992 q -0.134827,-0.808963 -0.404482,-1.258387 -0.269654,-0.449424 -0.659155,-0.659155 -0.37452,-0.224712 -0.868886,-0.254674 -0.494366,-0.04494 -1.078618,-0.04494 h -0.419462 q -1.138541,0 -1.138541,0.674136 v 2.681563 q 0,0.449424 0.359539,0.449424 h 0.509348 q 0.37452,0 0.689116,-0.02996 0.329578,-0.04494 0.569271,-0.194751 0.254673,-0.164789 0.404481,-0.479385 0.164789,-0.329578 0.224712,-0.883868 h 0.55429 v 3.880027 h -0.55429 q -0.05992,-0.554289 -0.179769,-0.868886 -0.119847,-0.329577 -0.344559,-0.494366 -0.224712,-0.17977 -0.554289,-0.224712 -0.329578,-0.05992 -0.808963,-0.05992 h -0.17977 q -0.689117,0 -0.689117,0.494366 v 2.861333 q 0,0.853905 1.198464,0.853905 h 0.464405 q 0.94379,0 1.513061,-0.134827 0.584251,-0.149808 0.94379,-0.449424 0.359539,-0.314597 0.56927,-0.779002 0.224712,-0.464404 0.449424,-1.093598 l 0.404482,0.119846 -0.404482,2.966199 z"
       id="text6"
       aria-label="PLEDGE" />
  </g>
  <g
     id="g38"
     transform="matrix(0.77506868,0,0,0.43134653,-49.496244,-22.180799)"
     style="display:inline"
     sodipodi:insensitive="true">
    <path
       id="path35"
       style="display:inline;fill:#ffffff;stroke-width:0.232761"
       d="m 72.30275,61.480367 5.373722,10.864116 h 7.224342 L 79.527091,61.480367 Z" />
    <path
       id="path36"
       style="display:inline;fill:#ffffff;stroke-width:0.232761"
       d="m 86.703516,61.480367 5.373722,10.864116 H 99.30158 L 93.927857,61.480367 Z" />
    <path
       id="path37"
       style="display:inline;fill:#ffffff;stroke-width:0.232761"
       d="m 100.57092,61.480367 5.37371,10.864116 h 7.22434 l -5.37372,-10.864116 z" />
    <path
       id="path38"
       style="display:inline;fill:#ffffff;stroke-width:0.232761"
       d="m 114.43834,61.480367 5.37371,10.864116 h 7.22434 l -5.37372,-10.864116 z" />
    <path
       id="path8"
       style="display:inline;fill:#ffffff;stroke-width:0.232761"
       d="m 127.03639,61.480367 5.37371,10.864116 h 7.22434 l -5.37372,-10.864116 z" />
    <path
       id="path10"
       style="display:inline;fill:#ffffff;stroke-width:0.232761"
       d="m 139.63444,61.480367 5.37371,10.864116 h 7.22434 l -5.37372,-10.864116 z" />
  </g>
  <g
     inkscape:groupmode="layer"
     id="layer2"
     inkscape:label="banner"
     style="fill:#0000ff"
     transform="matrix(1.0381609,0,0,0.87359005,-1.4327832,5.935114)">
    <path
       style="display:inline;opacity:1;fill:#ffffff;stroke:#000000;stroke-width:1.32292;stroke-linecap:round;stroke-linejoin:round;stroke-dasharray:none;stroke-opacity:1;paint-order:stroke fill markers"
       d="m 2.3311238,128.30121 v 10.32753 a 46.405479,19.49684 0 0 0 3.7703124,1.65727 v 2.61999 a 46.405479,19.49684 0 0 0 31.6678338,5.24516 46.405479,19.49684 0 0 0 31.220832,-5.07256 v -2.67115 a 46.405479,19.49684 0 0 0 3.770313,-1.62471 V 128.4552 a 46.405479,19.49684 0 0 1 -6.302458,2.53112 v 2.66805 a 46.405479,19.49684 0 0 1 -28.688687,4.17804 46.405479,19.49684 0 0 1 -29.1356887,-4.3279 v -2.62361 a 46.405479,19.49684 0 0 1 -6.3024575,-2.57969 z"
       id="path22"
       transform="matrix(1.0027863,0,0,0.72330873,-0.10461498,-26.907661)" />
    <path
       style="display:inline;opacity:1;fill:#1a1a1a;stroke:#000000;stroke-width:1.32292;stroke-linecap:round;stroke-linejoin:round;stroke-dasharray:none;stroke-opacity:1;paint-order:stroke fill markers"
       d="m 6.1014366,132.58002 2.5321447,-1.69912 v 6.17326 z"
       id="path24"
       transform="matrix(1.0027863,0,0,0.72330873,-0.10461498,-26.907661)" />
    <path
       style="display:inline;opacity:1;fill:#1a1a1a;stroke:#000000;stroke-width:1.32292;stroke-linecap:round;stroke-linejoin:round;stroke-dasharray:none;stroke-opacity:1;paint-order:stroke fill markers"
       d="m 68.990103,132.75313 -2.532144,-1.76681 v 5.67097 z"
       id="path25"
       transform="matrix(1.0027863,0,0,0.72330873,-0.10461498,-26.907661)" />
    <path
       id="path23"
       style="display:inline;opacity:1;fill:#ffffff;stroke:#000000;stroke-width:1.12668;stroke-linecap:round;stroke-linejoin:round;stroke-dasharray:none;stroke-opacity:1;paint-order:stroke fill markers"
       d="m 6.0138221,68.988625 v 7.468871 a 46.534779,14.102235 0 0 0 31.7560699,3.79387 46.534779,14.102235 0 0 0 31.307822,-3.669026 v -7.468503 a 46.534779,14.102235 0 0 1 -31.307822,3.673888 46.534779,14.102235 0 0 1 -31.7560699,-3.7991 z" />
    <path
       id="path17"
       style="display:inline;opacity:0.5;fill:none;stroke:#000000;stroke-width:0;stroke-dasharray:none;stroke-opacity:1;paint-order:stroke fill markers"
       d="m 7.0754918,74.775415 c 7.3414342,1.97088 15.1054982,2.92902 22.8902562,3.35295 10.185202,0.51174 20.525408,0.072 30.511013,-1.61007 2.55207,-0.43991 5.073721,-0.97499 7.539545,-1.6228 v -5.84722 c -9.761109,2.45 -20.158605,3.32912 -30.456106,3.34754 -10.044884,-0.0255 -20.163933,-0.93332 -29.7073746,-3.25785 -0.8009046,-0.38509 -0.8800267,-0.0266 -0.7773336,0.51919 z"
       sodipodi:nodetypes="ccccccccc" />
    <g
       id="text27"
       style="font-weight:bold;font-size:5.18613px;line-height:0;font-family:Marion;-inkscape-font-specification:'Marion Bold';letter-spacing:0.416742px;fill:#00ffff;stroke:#000000;stroke-width:0;stroke-linecap:round;stroke-linejoin:round;paint-order:stroke fill markers"
       aria-label="♦IN MUTUAL TRUST♦">
      <path
         style="font-weight:normal;font-size:2.59306px;-inkscape-font-specification:Marion;fill:#000000"
         d="m 10.27981,73.11254 q 0.06631,0.211787 0.176852,0.462492 0.127436,0.28975 0.211252,0.443214 -0.113678,0.07489 -0.385254,0.302779 -0.220038,0.185299 -0.3625631,0.339274 -0.018337,-0.07188 -0.056445,-0.170481 Q 9.798288,74.318556 9.696052,74.087989 9.6740591,74.037355 9.535979,73.754223 9.6935913,73.641471 9.9509055,73.424562 10.141847,73.263679 10.27981,73.11254 Z"
         id="path30" />
      <path
         style="font-weight:normal;-inkscape-font-specification:Marion;fill:#000000"
         d="m 11.596097,75.857604 0.03086,-0.152491 q 0.482892,0.09773 0.553878,-0.252997 l 0.457809,-2.261964 q 0.09053,-0.44731 -0.41269,-0.549159 l 0.03189,-0.157576 1.469006,0.297319 -0.03189,0.157575 q -0.467642,-0.09465 -0.558175,0.352662 l -0.45781,2.261964 q -0.07099,0.350731 0.416988,0.449494 l -0.03086,0.152492 z m 5.246732,1.016805 -1.779454,-3.257795 -0.344618,2.061403 q -0.101761,0.608702 0.425099,0.696781 l -0.02565,0.153454 -1.227635,-0.205232 0.02565,-0.153454 q 0.429672,0.07183 0.531433,-0.536871 l 0.377113,-2.255778 q 0.03592,-0.214836 -0.470483,-0.299494 l 0.02651,-0.15857 0.936071,0.156489 1.578425,2.887669 0.306138,-1.831221 q 0.09406,-0.562666 -0.42768,-0.64989 l 0.02651,-0.158569 1.222519,0.204376 -0.02651,0.15857 q -0.470593,-0.07867 -0.564658,0.483994 l -0.449799,2.690565 z m 5.934262,0.696425 0.01675,-0.15468 q 0.453727,0.04913 0.49448,-0.327262 l 0.223496,-2.401446 -1.415315,2.809698 -0.144368,-0.01563 -0.863504,-3.009484 -0.266814,2.271562 q -0.05428,0.453169 0.466474,0.509553 l -0.01675,0.15468 -1.242595,-0.134539 0.01675,-0.15468 q 0.469195,0.0508 0.548568,-0.441384 l 0.290229,-2.295108 0.0056,-0.05156 q 0.0061,-0.05672 -0.0043,-0.104795 -0.0053,-0.04752 -0.0581,-0.08975 -0.04765,-0.04167 -0.149097,-0.06831 -0.100887,-0.03179 -0.276191,-0.05077 l 0.01731,-0.159836 1.062135,0.115 0.758477,2.726858 1.278142,-2.506348 1.046667,0.113326 -0.01731,0.159836 q -0.170148,-0.01842 -0.270903,-0.0032 -0.100197,0.01002 -0.156781,0.05084 -0.05087,0.03622 -0.07248,0.09127 -0.01645,0.0556 -0.02315,0.117471 L 23.823294,77.1103 q -0.04466,0.41248 0.424536,0.463281 l -0.01675,0.15468 z m 5.511947,-2.364473 q 0.03366,-0.455136 -0.499051,-0.49454 l 0.01186,-0.160332 1.199904,0.08875 -0.01186,0.160332 q -0.429276,-0.03175 -0.462941,0.423384 l -0.116299,1.572288 q -0.02181,0.294804 -0.09151,0.534062 -0.0697,0.239259 -0.24304,0.403247 -0.167784,0.1592 -0.464685,0.236044 -0.296518,0.07167 -0.777514,0.03609 -0.305148,-0.02257 -0.531767,-0.122538 -0.221447,-0.09959 -0.370685,-0.261432 -0.144066,-0.161465 -0.211515,-0.374466 -0.06228,-0.212618 -0.0443,-0.455702 l 0.136575,-1.846405 q 0.02793,-0.377556 -0.463413,-0.413899 l 0.01186,-0.160332 1.494709,0.11056 -0.01186,0.160332 q -0.49134,-0.03634 -0.519267,0.341213 l -0.126628,1.711932 q -0.01301,0.175848 -0.01126,0.363188 0.0073,0.18255 0.0893,0.339424 0.08238,0.151702 0.266862,0.258953 0.18965,0.107634 0.546518,0.13403 0.331008,0.02448 0.534813,-0.05925 0.209359,-0.08852 0.323893,-0.230857 0.114535,-0.142337 0.158956,-0.321062 0.04959,-0.178342 0.06145,-0.338674 z m 1.750907,2.926924 0.0071,-0.155421 q 0.554334,0.0254 0.576171,-0.451226 l 0.109426,-2.388301 q 0.0088,-0.191685 -0.245072,-0.203316 -0.341926,-0.01567 -0.564541,0.197372 -0.222378,0.207857 -0.346405,0.648649 l -0.158703,-0.0488 0.190438,-1.097079 q 0.118444,0.021 0.221583,0.03611 0.10832,0.01535 0.206753,0.01986 l 1.994568,0.09139 q 0.108794,0.005 0.223244,-1.55e-4 0.11445,-0.0051 0.234318,-0.01522 l -0.04961,1.082765 -0.140828,0.01431 q -0.02419,-0.831759 -0.790933,-0.866889 -0.259035,-0.01187 -0.267105,0.164275 L 31.130946,77.5499 q -0.02184,0.476624 0.537677,0.502259 l -0.0071,0.155421 z m 6.005351,-2.630916 q 0.0094,-0.456282 -0.524632,-0.467314 l 0.0033,-0.160736 1.202926,0.02485 -0.0033,0.160735 q -0.430357,-0.0089 -0.439782,0.447392 l -0.03256,1.576248 q -0.0061,0.295546 -0.06299,0.538171 -0.05688,0.242625 -0.221262,0.415595 -0.159085,0.167893 -0.451481,0.26041 -0.29229,0.08733 -0.774497,0.07737 -0.305916,-0.0063 -0.537529,-0.0941 -0.226427,-0.08767 -0.384057,-0.241359 -0.152444,-0.153579 -0.23112,-0.362694 -0.07349,-0.209008 -0.06846,-0.452704 l 0.03824,-1.851053 q 0.0078,-0.378507 -0.484758,-0.388683 l 0.0033,-0.160735 1.498472,0.03096 -0.0033,0.160735 q -0.492578,-0.01017 -0.500397,0.368332 l -0.03545,1.716243 q -0.0036,0.17629 0.0081,0.363273 0.01699,0.181904 0.107215,0.334197 0.09033,0.147109 0.280249,0.244403 0.195103,0.0974 0.55287,0.104791 0.331842,0.0069 0.530908,-0.08759 0.204358,-0.09952 0.311164,-0.247747 0.106807,-0.148223 0.141666,-0.329056 0.04004,-0.180727 0.04337,-0.341462 z m 2.863432,2.823936 -7.63e-4,-0.155582 q 0.07255,-0.01073 0.150294,-0.02148 0.08293,-0.01078 0.145082,-0.02664 0.06734,-0.01589 0.10873,-0.03684 0.04655,-0.02616 0.04639,-0.05727 -0.0053,-0.02072 -0.01065,-0.057 -2.03e-4,-0.04149 -0.02641,-0.09841 L 39.084896,77.23634 q -0.05771,-0.134558 -0.317012,-0.133286 l -0.772724,0.0038 q -0.19707,9.67e-4 -0.237897,0.136009 l -0.17368,0.540216 q -0.02051,0.04678 -0.02008,0.13494 0.0012,0.238559 0.457544,0.236319 l 8.66e-4,0.176326 -1.166866,0.0057 -8.65e-4,-0.176327 q 0.150345,-0.01111 0.253608,-0.104968 0.10845,-0.09388 0.180189,-0.270566 l 1.2301,-2.972539 0.155887,0.06147 1.244215,3.074493 q 0.07314,0.108551 0.114755,0.134278 0.01042,0.01032 0.08313,0.03071 0.07787,0.01518 0.212883,0.05082 l 7.64e-4,0.155582 z m -0.464854,-2.782705 -0.45103,1.091314 q -0.05644,0.124746 -0.05618,0.176606 3.82e-4,0.07779 0.192266,0.07685 l 0.653445,-0.0032 q 0.155582,-7.63e-4 0.155276,-0.063 -1.27e-4,-0.02593 -0.05789,-0.17086 z m 2.556655,2.759059 -0.0045,-0.155519 q 0.456189,-0.01319 0.448096,-0.293121 l -0.07073,-2.446831 q -0.01139,-0.393982 -0.524601,-0.379146 l -0.0046,-0.160703 1.498166,-0.04331 0.0046,0.160703 q -0.476924,0.01379 -0.465535,0.407768 l 0.07073,2.446831 q 0.0063,0.217727 0.343252,0.207986 l 0.238462,-0.0069 q 0.238462,-0.0069 0.413818,-0.04309 0.175206,-0.04138 0.297823,-0.107187 0.224498,-0.131009 0.388104,-0.753146 l 0.140566,0.01669 -0.124649,1.072392 z m 5.822606,-0.23907 -0.0104,-0.155236 q 0.553675,-0.03709 0.521787,-0.513144 l -0.159785,-2.38546 q -0.01282,-0.191458 -0.266377,-0.174474 -0.341519,0.02288 -0.538771,0.259591 -0.197598,0.231542 -0.271281,0.683484 l -0.163183,-0.03065 0.06589,-1.111534 q 0.120054,0.0076 0.224238,0.01097 0.109359,0.0031 0.207675,-0.0035 l 1.992196,-0.133443 q 0.108665,-0.0073 0.221811,-0.02525 0.113147,-0.01797 0.231121,-0.04147 l 0.07244,1.081478 -0.138326,0.03006 q -0.117551,-0.823766 -0.883382,-0.772468 -0.258727,0.01733 -0.246943,0.193264 l 0.159786,2.385461 q 0.03189,0.476057 0.590737,0.438623 l 0.0104,0.155236 z m 4.231635,-2.211448 q 0.154903,-0.01453 0.297542,-0.04875 0.142639,-0.03422 0.249452,-0.117165 0.106814,-0.08295 0.161343,-0.223495 0.05969,-0.141032 0.03789,-0.373387 -0.01841,-0.196212 -0.10281,-0.318515 -0.07924,-0.122789 -0.199615,-0.184419 -0.115699,-0.06728 -0.252856,-0.08566 -0.137156,-0.01838 -0.266242,-0.0063 l -0.247846,0.02325 q -0.196211,0.01841 -0.169081,0.307563 l 0.09253,0.986219 q 0.02792,0.07551 0.13119,0.06582 z m 1.986907,1.246026 q 0.0058,0.06196 -0.01693,0.152647 -0.01758,0.0902 -0.07228,0.173467 -0.04953,0.08278 -0.131981,0.147814 -0.07729,0.06455 -0.185719,0.07472 -0.31497,0.02955 -0.4744,-0.05967 -0.159913,-0.09438 -0.254487,-0.325119 -0.08037,-0.190398 -0.163165,-0.406613 -0.08328,-0.221378 -0.188497,-0.399026 -0.10054,-0.183297 -0.23609,-0.295592 -0.136035,-0.117459 -0.321919,-0.100019 l -0.154904,0.01453 q -0.139413,0.01308 -0.154737,0.07182 l 0.105128,1.120469 q 0.03149,0.335624 0.506528,0.291053 l 0.01453,0.154904 -1.456094,0.136619 -0.01453,-0.154904 q 0.454383,-0.04263 0.422893,-0.378257 l -0.229151,-2.442313 q -0.03101,-0.330461 -0.521534,-0.284437 l -0.01502,-0.160067 0.645432,-0.06056 q 0.170394,-0.01599 0.289153,-0.02713 0.118275,-0.01631 0.226223,-0.03164 0.113112,-0.01582 0.237035,-0.02745 0.128602,-0.01728 0.309322,-0.03423 0.222029,-0.02083 0.424538,0.02788 0.202025,0.04355 0.352096,0.144067 0.155235,0.100031 0.252384,0.247183 0.09715,0.147152 0.114106,0.327873 0.01696,0.180721 -0.03709,0.326432 -0.05405,0.145712 -0.168278,0.260608 -0.10907,0.114412 -0.267518,0.202203 -0.158448,0.08779 -0.355947,0.147993 l 0.0015,0.01549 q 0.258988,0.09551 0.436012,0.261208 0.181702,0.160054 0.254003,0.319955 0.04067,0.100363 0.09554,0.241064 0.05487,0.140701 0.118619,0.264942 0.06891,0.123757 0.149918,0.209917 0.08053,0.081 0.183794,0.07131 0.123923,-0.01163 0.15892,-0.249312 z m 3.111469,-2.771411 q -0.05671,-0.452843 -0.586739,-0.386471 l -0.01998,-0.159524 1.193858,-0.149499 0.01998,0.159524 q -0.427113,0.05349 -0.370406,0.506327 l 0.195896,1.564366 q 0.03673,0.293319 0.01556,0.541622 -0.02117,0.248303 -0.158788,0.443241 -0.133113,0.189148 -0.409042,0.323007 -0.276574,0.128713 -0.755146,0.188642 -0.303611,0.03802 -0.545488,-0.01532 -0.236732,-0.05398 -0.414943,-0.183238 -0.173066,-0.1299 -0.281177,-0.325428 -0.102965,-0.196171 -0.133251,-0.43803 l -0.230049,-1.837101 q -0.04704,-0.375654 -0.535906,-0.314436 l -0.01998,-0.159524 1.487177,-0.18623 0.01998,0.159524 q -0.488864,0.06122 -0.441823,0.436871 l 0.213294,1.703306 q 0.02191,0.174962 0.06055,0.358283 0.04314,0.17753 0.154452,0.315163 0.11067,0.132487 0.312669,0.201272 0.207144,0.06814 0.562214,0.02368 0.329341,-0.04124 0.512643,-0.163501 0.187804,-0.12805 0.272035,-0.29017 0.08423,-0.16212 0.09255,-0.346095 0.01347,-0.184618 -0.0065,-0.344142 z m 3.348836,-0.06703 q -0.167178,-0.399092 -0.446355,-0.607519 -0.279975,-0.213551 -0.633549,-0.158442 -0.292083,0.04552 -0.442348,0.226407 -0.150264,0.180883 -0.113525,0.416599 0.02875,0.184474 0.173299,0.30366 0.148872,0.113264 0.416733,0.181739 0.333345,0.08451 0.603935,0.136814 0.26979,0.04718 0.467509,0.137083 0.202843,0.08911 0.328158,0.25328 0.130438,0.163376 0.178359,0.470832 0.02955,0.189597 -0.0032,0.383655 -0.02761,0.193259 -0.127435,0.361031 -0.100619,0.162647 -0.286089,0.286032 -0.181145,0.117462 -0.457855,0.160591 -0.179349,0.02795 -0.316573,0.0231 -0.1321,-0.0057 -0.229928,-0.02715 -0.0927,-0.02229 -0.149536,-0.05018 -0.05683,-0.02788 -0.07973,-0.04006 -0.08618,0.08691 -0.174755,0.158456 -0.08857,0.07154 -0.181943,0.112338 -0.116268,-0.375534 -0.193336,-0.667949 -0.07274,-0.298338 -0.107885,-0.523806 l 0.1691,-0.02636 q 0.03514,0.225467 0.15693,0.400689 0.120989,0.170097 0.285234,0.280965 0.164245,0.110868 0.355574,0.159778 0.190531,0.04379 0.359631,0.01743 0.10761,-0.01677 0.230126,-0.07261 0.12764,-0.05663 0.228393,-0.15107 0.105878,-0.09523 0.164373,-0.225072 0.06362,-0.130637 0.03806,-0.294613 -0.03195,-0.20497 -0.168641,-0.341127 -0.13157,-0.136956 -0.385988,-0.186531 -0.297808,-0.05856 -0.572723,-0.104938 -0.26979,-0.04718 -0.488006,-0.133888 -0.21389,-0.09263 -0.359702,-0.253612 -0.14661,-0.166104 -0.192934,-0.463311 -0.03354,-0.215219 0.01617,-0.401425 0.04971,-0.186205 0.158647,-0.329154 0.113264,-0.148872 0.277106,-0.242642 0.163044,-0.09889 0.352641,-0.128446 0.220344,-0.03434 0.38685,0.02369 0.170833,0.0521 0.313648,0.09283 0.138885,-0.152865 0.305123,-0.231263 0.108479,0.224535 0.180755,0.486204 0.07148,0.256546 0.119399,0.564002 z m 1.984929,2.082816 -0.02932,-0.152796 q 0.544974,-0.104571 0.455063,-0.573146 l -0.450533,-2.347973 q -0.03616,-0.188449 -0.285728,-0.140561 -0.336152,0.0645 -0.50295,0.323579 -0.167775,0.253984 -0.185592,0.711546 l -0.165708,-0.01045 -0.07065,-1.111242 q 0.120076,-0.0072 0.223894,-0.01656 0.108913,-0.01034 0.205684,-0.0289 l 1.960887,-0.376259 q 0.106958,-0.02052 0.217054,-0.05221 0.110096,-0.03169 0.224308,-0.06944 l 0.204255,1.064482 -0.133608,0.04676 q -0.217485,-0.803187 -0.971281,-0.658548 -0.254661,0.04886 -0.221433,0.222035 l 0.450533,2.347972 q 0.08991,0.468575 0.639978,0.363028 l 0.02932,0.152796 z"
         id="path31" />
      <path
         style="font-weight:normal;font-size:2.59306px;-inkscape-font-specification:Marion;fill:#000000"
         d="m 64.976436,73.179774 q 0.152614,0.161121 0.362057,0.337773 0.241774,0.204305 0.384489,0.305342 -0.06922,0.117222 -0.213065,0.441247 -0.116259,0.263129 -0.176648,0.464063 -0.04805,-0.05652 -0.125603,-0.12835 -0.133958,-0.125133 -0.327094,-0.287342 -0.042,-0.03582 -0.29043,-0.229507 0.09205,-0.170531 0.22791,-0.478432 0.100848,-0.228411 0.158384,-0.424794 z"
         id="path32" />
    </g>
  </g>
  <g
     id="g6"
     transform="matrix(0.77506868,0,0,-0.43134653,-49.496244,40.710055)"
     style="display:inline"
     sodipodi:insensitive="true">
    <path
       id="path3"
       style="display:inline;fill:#ffffff;stroke-width:0.232761"
       d="m 72.30275,61.480367 5.373722,10.864116 h 7.224342 L 79.527091,61.480367 Z" />
    <path
       id="path4"
       style="display:inline;fill:#ffffff;stroke-width:0.232761"
       d="m 86.703516,61.480367 5.373722,10.864116 H 99.30158 L 93.927857,61.480367 Z" />
    <path
       id="path5"
       style="display:inline;fill:#ffffff;stroke-width:0.232761"
       d="m 100.57092,61.480367 5.37371,10.864116 h 7.22434 l -5.37372,-10.864116 z" />
    <path
       id="path6"
       style="display:inline;fill:#ffffff;stroke-width:0.232761"
       d="m 114.43834,61.480367 5.37371,10.864116 h 7.22434 l -5.37372,-10.864116 z" />
    <path
       id="path9"
       style="display:inline;fill:#ffffff;stroke-width:0.232761"
       d="m 127.03639,61.480367 5.37371,10.864116 h 7.22434 l -5.37372,-10.864116 z" />
    <path
       id="path11"
       style="display:inline;fill:#ffffff;stroke-width:0.232761"
       d="m 139.63444,61.480367 5.37371,10.864116 h 7.22434 l -5.37372,-10.864116 z" />
  </g>
</svg>
