<?xml version="1.0" encoding="UTF-8"?>
<svg width="1200pt" height="1200pt" version="1.1" viewBox="0 0 1200 1200" xmlns="http://www.w3.org/2000/svg">
 <path d="m721.87 274.68c-30.816-10.883-49.285-38.746-70.68-71.016-22.5-33.949-48.012-72.422-92.797-92.555-93.945-42.23-202.73 11.59-282.16 50.891-9.2773 4.5977-18.227 9.0117-26.773 13.105-51.227 24.516-74.148 27.961-82.094 28.223l-32.508-119.12c-4.7852-17.496-22.82-27.805-40.363-23.039-17.508 4.7773-27.828 22.836-23.051 40.355l137.76 504.89 11.051 43.535 2.2812 5.3398 125.65 460.49c3.9922 14.629 17.242 24.23 31.688 24.23 2.8672 0 5.7852-0.38281 8.6758-1.1641 17.508-4.7773 27.828-22.848 23.051-40.355l-113-414.14c80.328-55.379 211.46-131.09 272.82-131.09 1.3672 0 2.7109 0.035156 4.0078 0.12109 15.109 0.88672 16.656 2.7227 23.914 28.043 19.008 66.457 56.496 100.31 184.49 63.887 217.22-61.859 319.79-351.41 324.05-363.71l21.84-63.035-63.289 21.098c-71.5 23.832-257.5 65.734-344.56 35.027zm-450.19 302.48c-0.60156 0.5625-1.043 1.2227-1.5977 1.8242l-71.207-280.44c53.004 13.715 99.266 55.57 116.43 107.53 19.332 58.574 1.4023 128.93-43.621 171.09z" fill="#fff"/>
</svg>
